<svg width="18" height="18" viewBox="0 0 18 18" fill="none" xmlns="http://www.w3.org/2000/svg">
<path d="M16 5V2H2V5H6C6 5.79565 6.31607 6.55871 6.87868 7.12132C7.44129 7.68393 8.20435 8 9 8C9.79565 8 10.5587 7.68393 11.1213 7.12132C11.6839 6.55871 12 5.79565 12 5H16ZM16 0C16.5304 0 17.0391 0.210714 17.4142 0.585786C17.7893 0.960859 18 1.46957 18 2V9C18 9.53043 17.7893 10.0391 17.4142 10.4142C17.0391 10.7893 16.5304 11 16 11H2C1.46957 11 0.960859 10.7893 0.585786 10.4142C0.210714 10.0391 0 9.53043 0 9V2C0 1.46957 0.210714 0.960859 0.585786 0.585786C0.960859 0.210714 1.46957 0 2 0H16ZM0 12H6C6 12.7956 6.31607 13.5587 6.87868 14.1213C7.44129 14.6839 8.20435 15 9 15C9.79565 15 10.5587 14.6839 11.1213 14.1213C11.6839 13.5587 12 12.7956 12 12H18V16C18 16.5304 17.7893 17.0391 17.4142 17.4142C17.0391 17.7893 16.5304 18 16 18H2C1.46957 18 0.960859 17.7893 0.585786 17.4142C0.210714 17.0391 0 16.5304 0 16V12Z" fill="#EBEBEB"/>
</svg>
